<?xml version="1.0" encoding="UTF-8" standalone="no"?>
<svg
   xmlns:dc="http://purl.org/dc/elements/1.1/"
   xmlns:cc="http://creativecommons.org/ns#"
   xmlns:rdf="http://www.w3.org/1999/02/22-rdf-syntax-ns#"
   xmlns:svg="http://www.w3.org/2000/svg"
   xmlns="http://www.w3.org/2000/svg"
   xmlns:sodipodi="http://sodipodi.sourceforge.net/DTD/sodipodi-0.dtd"
   xmlns:inkscape="http://www.inkscape.org/namespaces/inkscape"
   sodipodi:docname="traditional.svg"
   inkscape:version="1.0 (4035a4fb49, 2020-05-01)"
   id="svg467"
   version="1.1"
   viewBox="0 0 210 297"
   height="297mm"
   width="210mm"
   inkscape:export-filename="C:\Users\fores\OneDrive\Trebuchet project\graphics\traditional pic.png"
   inkscape:export-xdpi="96"
   inkscape:export-ydpi="96">
  <defs
     id="defs461">
    <marker
       inkscape:isstock="true"
       style="overflow:visible;"
       id="marker3108"
       refX="0.0"
       refY="0.0"
       orient="auto"
       inkscape:stockid="Arrow1Lend">
      <path
         transform="scale(0.8) rotate(180) translate(12.5,0)"
         style="fill-rule:evenodd;stroke:#a70000;stroke-width:1pt;stroke-opacity:1;fill:#0000ff;fill-opacity:1"
         d="M 0.0,0.0 L 5.0,-5.0 L -12.5,0.0 L 5.0,5.0 L 0.0,0.0 z "
         id="path3106" />
    </marker>
    <marker
       inkscape:stockid="Arrow1Lend"
       orient="auto"
       refY="0.0"
       refX="0.0"
       id="marker3098"
       style="overflow:visible;"
       inkscape:isstock="true">
      <path
         id="path3096"
         d="M 0.0,0.0 L 5.0,-5.0 L -12.5,0.0 L 5.0,5.0 L 0.0,0.0 z "
         style="fill-rule:evenodd;stroke:#a70000;stroke-width:1pt;stroke-opacity:1;fill:#0000ff;fill-opacity:1"
         transform="scale(0.8) rotate(180) translate(12.5,0)" />
    </marker>
    <marker
       inkscape:stockid="Arrow1Lend"
       orient="auto"
       refY="0.0"
       refX="0.0"
       id="marker3088"
       style="overflow:visible;"
       inkscape:isstock="true">
      <path
         id="path3086"
         d="M 0.0,0.0 L 5.0,-5.0 L -12.5,0.0 L 5.0,5.0 L 0.0,0.0 z "
         style="fill-rule:evenodd;stroke:#a90000;stroke-width:1pt;stroke-opacity:1;fill:#a90000;fill-opacity:1"
         transform="scale(0.8) rotate(180) translate(12.5,0)" />
    </marker>
    <marker
       inkscape:isstock="true"
       style="overflow:visible"
       id="marker3078"
       refX="0.0"
       refY="0.0"
       orient="auto"
       inkscape:stockid="Arrow1Lstart">
      <path
         transform="scale(0.8) translate(12.5,0)"
         style="fill-rule:evenodd;stroke:#a90000;stroke-width:1pt;stroke-opacity:1;fill:#a90000;fill-opacity:1"
         d="M 0.0,0.0 L 5.0,-5.0 L -12.5,0.0 L 5.0,5.0 L 0.0,0.0 z "
         id="path3076" />
    </marker>
    <marker
       inkscape:stockid="Arrow1Lend"
       orient="auto"
       refY="0.0"
       refX="0.0"
       id="marker2084"
       style="overflow:visible;"
       inkscape:isstock="true">
      <path
         id="path2082"
         d="M 0.0,0.0 L 5.0,-5.0 L -12.5,0.0 L 5.0,5.0 L 0.0,0.0 z "
         style="fill-rule:evenodd;stroke:#000000;stroke-width:1pt;stroke-opacity:1;fill:#000000;fill-opacity:1"
         transform="scale(0.8) rotate(180) translate(12.5,0)" />
    </marker>
    <marker
       inkscape:isstock="true"
       style="overflow:visible;"
       id="marker1922"
       refX="0.0"
       refY="0.0"
       orient="auto"
       inkscape:stockid="Arrow1Lend">
      <path
         transform="scale(0.8) rotate(180) translate(12.5,0)"
         style="fill-rule:evenodd;stroke:#ff0000;stroke-width:1pt;stroke-opacity:1;fill:#0000ff;fill-opacity:1"
         d="M 0.0,0.0 L 5.0,-5.0 L -12.5,0.0 L 5.0,5.0 L 0.0,0.0 z "
         id="path1920" />
    </marker>
    <marker
       inkscape:isstock="true"
       style="overflow:visible"
       id="marker1612"
       refX="0.0"
       refY="0.0"
       orient="auto"
       inkscape:stockid="Arrow1Lstart">
      <path
         transform="scale(0.8) translate(12.5,0)"
         style="fill-rule:evenodd;stroke:#000000;stroke-width:1pt;stroke-opacity:1;fill:#000000;fill-opacity:1"
         d="M 0.0,0.0 L 5.0,-5.0 L -12.5,0.0 L 5.0,5.0 L 0.0,0.0 z "
         id="path1610" />
    </marker>
    <marker
       inkscape:isstock="true"
       style="overflow:visible"
       id="Arrow1Lstart"
       refX="0.0"
       refY="0.0"
       orient="auto"
       inkscape:stockid="Arrow1Lstart">
      <path
         transform="scale(0.8) translate(12.5,0)"
         style="fill-rule:evenodd;stroke:#000000;stroke-width:1pt;stroke-opacity:1;fill:#000000;fill-opacity:1"
         d="M 0.0,0.0 L 5.0,-5.0 L -12.5,0.0 L 5.0,5.0 L 0.0,0.0 z "
         id="path1334" />
    </marker>
  </defs>
  <sodipodi:namedview
     inkscape:snap-global="false"
     inkscape:window-maximized="1"
     inkscape:window-y="-8"
     inkscape:window-x="1912"
     inkscape:window-height="1027"
     inkscape:window-width="1920"
     showgrid="false"
     inkscape:document-rotation="0"
     inkscape:current-layer="layer1"
     inkscape:document-units="mm"
     inkscape:cy="266.01876"
     inkscape:cx="187.2123"
     inkscape:zoom="0.70710678"
     inkscape:pageshadow="2"
     inkscape:pageopacity="0.0"
     borderopacity="1.0"
     bordercolor="#666666"
     pagecolor="#ffffff"
     id="base"
     inkscape:object-paths="false"
     inkscape:snap-intersection-paths="false"
     inkscape:snap-smooth-nodes="false"
     inkscape:snap-midpoints="false" />
  <metadata
     id="metadata464">
    <rdf:RDF>
      <cc:Work
         rdf:about="">
        <dc:format>image/svg+xml</dc:format>
        <dc:type
           rdf:resource="http://purl.org/dc/dcmitype/StillImage" />
        <dc:title></dc:title>
      </cc:Work>
    </rdf:RDF>
  </metadata>
  <g
     id="layer1"
     inkscape:groupmode="layer"
     inkscape:label="Layer 1">
    <path
       inkscape:transform-center-y="-13.095393"
       inkscape:transform-center-x="-3.6621162e-06"
       d="m 149.3752,175.61735 -90.727495,0 45.363745,-78.572317 z"
       inkscape:randomized="0"
       inkscape:rounded="0"
       inkscape:flatsided="true"
       sodipodi:arg2="1.5707963"
       sodipodi:arg1="0.52359878"
       sodipodi:r2="26.190771"
       sodipodi:r1="52.381542"
       sodipodi:cy="149.42657"
       sodipodi:cx="104.01145"
       sodipodi:sides="3"
       id="path477"
       style="fill:#b3b3b3;stroke-width:0.153258"
       sodipodi:type="star" />
    <path
       inkscape:transform-center-y="-9.7558763"
       inkscape:transform-center-x="-3.6428081e-06"
       d="m 137.80681,169.28866 -67.590719,0 33.795359,-58.53528 z"
       inkscape:randomized="0"
       inkscape:rounded="0"
       inkscape:flatsided="true"
       sodipodi:arg2="1.5707963"
       sodipodi:arg1="0.52359878"
       sodipodi:r2="19.511761"
       sodipodi:r1="39.023521"
       sodipodi:cy="149.7769"
       sodipodi:cx="104.01145"
       sodipodi:sides="3"
       id="path487"
       style="fill:#ffffff;stroke-width:0.153258;stroke:none;stroke-opacity:1"
       sodipodi:type="star" />
    <text
       id="text3040"
       y="128.32292"
       x="137.39435"
       style="font-style:normal;font-weight:normal;font-size:10.5833px;line-height:1.25;font-family:sans-serif;fill:#000000;fill-opacity:1;stroke:none;stroke-width:0.264583"
       xml:space="preserve"><tspan
         style="stroke-width:0.264583"
         y="128.32292"
         x="137.39435"
         id="tspan3038"
         sodipodi:role="line" /></text>
    <text
       xml:space="preserve"
       style="font-style:normal;font-weight:normal;font-size:10.5833px;line-height:1.25;font-family:sans-serif;fill:#000000;fill-opacity:1;stroke:none;stroke-width:0.264583"
       x="18.441597"
       y="166.50891"
       id="text1816"><tspan
         sodipodi:role="line"
         id="tspan1814"
         x="18.441597"
         y="166.50891"
         style="stroke-width:0.264583" /></text>
    <rect
       transform="rotate(-41.222919)"
       rx="2.2898295"
       ry="1.8153598"
       y="145.45842"
       x="-64.296562"
       height="4.4360452"
       width="113.56859"
       id="rect499"
       style="fill:#333333;stroke-width:0.19857" />
    <rect
       transform="rotate(-41.222919)"
       ry="1.8860331"
       y="141.21332"
       x="44.507435"
       height="12.935717"
       width="6.3208609"
       id="rect73"
       style="fill:#999999;fill-rule:evenodd;stroke-width:0.659993;stroke-linecap:round;stroke-linejoin:round" />
    <g
       transform="translate(-0.11091179,-0.41091846)"
       id="g1032">
      <path
         d="m 76.959423,146.21698 a 41.826351,1.5734119 0 0 1 -33.771476,-1.82678 41.826351,1.5734119 0 0 1 48.560664,-1.27047 41.826351,1.5734119 0 0 1 33.774869,1.8267 41.826351,1.5734119 0 0 1 -48.55831,1.27059"
         style="fill:none;fill-rule:evenodd;stroke:#505050;stroke-width:0.991862;stroke-linecap:round;stroke-linejoin:round;stroke-opacity:1"
         id="path89"
         sodipodi:type="arc"
         sodipodi:cx="84.355453"
         sodipodi:cy="144.66837"
         sodipodi:rx="41.826351"
         sodipodi:ry="1.5734119"
         sodipodi:start="1.7485581"
         sodipodi:end="1.7484185"
         sodipodi:open="true"
         sodipodi:arc-type="arc"
         inkscape:transform-center-x="-40.621643"
         inkscape:transform-center-y="7.7559799"
         transform="matrix(0.98268858,0.18526509,0.05786084,0.99832466,0,0)" />
      <path
         style="fill:#800000;fill-opacity:1;fill-rule:evenodd;stroke:#000000;stroke-width:0.4;stroke-linecap:round;stroke-linejoin:round;stroke-miterlimit:4;stroke-dasharray:none;stroke-opacity:1"
         id="path1028"
         sodipodi:type="arc"
         sodipodi:cx="130.67654"
         sodipodi:cy="167.42381"
         sodipodi:rx="2.1828125"
         sodipodi:ry="2.1828125"
         sodipodi:start="1.7485581"
         sodipodi:end="1.7484185"
         sodipodi:open="true"
         sodipodi:arc-type="arc"
         d="m 130.29056,169.57223 a 2.1828125,2.1828125 0 0 1 -1.76244,-2.53432 2.1828125,2.1828125 0 0 1 2.53425,-1.76254 2.1828125,2.1828125 0 0 1 1.76263,2.5342 2.1828125,2.1828125 0 0 1 -2.53414,1.76271" />
    </g>
    <rect
       style="fill:#333333;stroke-width:0.19857"
       id="rect1074"
       width="113.56859"
       height="4.4360452"
       x="3.1225941"
       y="124.56696"
       ry="1.8153598"
       rx="2.2898295"
       transform="rotate(-13.625225)" />
    <rect
       style="fill:#999999;fill-rule:evenodd;stroke-width:0.659993;stroke-linecap:round;stroke-linejoin:round"
       id="rect1076"
       width="6.3208609"
       height="12.935717"
       x="111.92659"
       y="120.32185"
       ry="1.8860331"
       transform="rotate(-13.625225)" />
    <g
       inkscape:transform-center-y="23.221145"
       inkscape:transform-center-x="-35.570193"
       id="g1086"
       transform="rotate(21.89726,120.48002,97.633842)">
      <path
         transform="matrix(0.98268858,0.18526509,0.05786084,0.99832466,0,0)"
         inkscape:transform-center-y="7.7559799"
         inkscape:transform-center-x="-40.621643"
         sodipodi:arc-type="arc"
         sodipodi:open="true"
         sodipodi:end="1.7484185"
         sodipodi:start="1.7485581"
         sodipodi:ry="1.5734119"
         sodipodi:rx="41.826351"
         sodipodi:cy="144.66837"
         sodipodi:cx="84.355453"
         sodipodi:type="arc"
         id="path1082"
         style="fill:none;fill-rule:evenodd;stroke:#505050;stroke-width:0.991862;stroke-linecap:round;stroke-linejoin:round;stroke-opacity:1"
         d="m 76.959423,146.21698 a 41.826351,1.5734119 0 0 1 -33.771476,-1.82678 41.826351,1.5734119 0 0 1 48.560664,-1.27047 41.826351,1.5734119 0 0 1 33.774869,1.8267 41.826351,1.5734119 0 0 1 -48.55831,1.27059" />
      <path
         d="m 130.29056,169.57223 a 2.1828125,2.1828125 0 0 1 -1.76244,-2.53432 2.1828125,2.1828125 0 0 1 2.53425,-1.76254 2.1828125,2.1828125 0 0 1 1.76263,2.5342 2.1828125,2.1828125 0 0 1 -2.53414,1.76271"
         sodipodi:arc-type="arc"
         sodipodi:open="true"
         sodipodi:end="1.7484185"
         sodipodi:start="1.7485581"
         sodipodi:ry="2.1828125"
         sodipodi:rx="2.1828125"
         sodipodi:cy="167.42381"
         sodipodi:cx="130.67654"
         sodipodi:type="arc"
         id="path1084"
         style="fill:#800000;fill-opacity:1;fill-rule:evenodd;stroke:#000000;stroke-width:0.4;stroke-linecap:round;stroke-linejoin:round;stroke-miterlimit:4;stroke-dasharray:none;stroke-opacity:1" />
    </g>
    <rect
       transform="rotate(15.009753)"
       rx="2.2898295"
       ry="1.8153598"
       y="72.520607"
       x="54.567081"
       height="4.4360452"
       width="113.56859"
       id="rect1088"
       style="fill:#333333;stroke-width:0.19857" />
    <rect
       transform="rotate(15.009753)"
       ry="1.8860331"
       y="68.275505"
       x="163.37108"
       height="12.935717"
       width="6.3208609"
       id="rect1090"
       style="fill:#999999;fill-rule:evenodd;stroke-width:0.659993;stroke-linecap:round;stroke-linejoin:round" />
    <g
       transform="rotate(107.79476,66.841296,114.1034)"
       id="g1100"
       inkscape:transform-center-x="20.408443"
       inkscape:transform-center-y="36.79988">
      <path
         d="m 76.959423,146.21698 a 41.826351,1.5734119 0 0 1 -33.771476,-1.82678 41.826351,1.5734119 0 0 1 48.560664,-1.27047 41.826351,1.5734119 0 0 1 33.774869,1.8267 41.826351,1.5734119 0 0 1 -48.55831,1.27059"
         style="fill:none;fill-rule:evenodd;stroke:#505050;stroke-width:0.991862;stroke-linecap:round;stroke-linejoin:round;stroke-opacity:1"
         id="path1096"
         sodipodi:type="arc"
         sodipodi:cx="84.355453"
         sodipodi:cy="144.66837"
         sodipodi:rx="41.826351"
         sodipodi:ry="1.5734119"
         sodipodi:start="1.7485581"
         sodipodi:end="1.7484185"
         sodipodi:open="true"
         sodipodi:arc-type="arc"
         inkscape:transform-center-x="-40.621643"
         inkscape:transform-center-y="7.7559799"
         transform="matrix(0.98268858,0.18526509,0.05786084,0.99832466,0,0)" />
      <path
         style="fill:#800000;fill-opacity:1;fill-rule:evenodd;stroke:#000000;stroke-width:0.4;stroke-linecap:round;stroke-linejoin:round;stroke-miterlimit:4;stroke-dasharray:none;stroke-opacity:1"
         id="path1098"
         sodipodi:type="arc"
         sodipodi:cx="130.67654"
         sodipodi:cy="167.42381"
         sodipodi:rx="2.1828125"
         sodipodi:ry="2.1828125"
         sodipodi:start="1.7485581"
         sodipodi:end="1.7484185"
         sodipodi:open="true"
         sodipodi:arc-type="arc"
         d="m 130.29056,169.57223 a 2.1828125,2.1828125 0 0 1 -1.76244,-2.53432 2.1828125,2.1828125 0 0 1 2.53425,-1.76254 2.1828125,2.1828125 0 0 1 1.76263,2.5342 2.1828125,2.1828125 0 0 1 -2.53414,1.76271" />
    </g>
    <rect
       style="fill:#333333;stroke-width:0.19857"
       id="rect1102"
       width="113.56859"
       height="4.4360452"
       x="74.590622"
       y="-10.888573"
       ry="1.8153598"
       rx="2.2898295"
       transform="rotate(48.709968)" />
    <rect
       style="fill:#999999;fill-rule:evenodd;stroke-width:0.659993;stroke-linecap:round;stroke-linejoin:round"
       id="rect1104"
       width="6.3208609"
       height="12.935717"
       x="183.39462"
       y="-15.133675"
       ry="1.8860331"
       transform="rotate(48.709968)" />
    <g
       inkscape:transform-center-y="-0.90074963"
       inkscape:transform-center-x="41.815085"
       id="g1114"
       transform="rotate(125.62797,79.64785,103.80114)">
      <g
         transform="rotate(44.3177,50.57552,152.34915)"
         inkscape:transform-center-y="37.858281"
         inkscape:transform-center-x="18.205077"
         id="g1118">
        <path
           d="m 77.009487,146.19483 a 41.826351,1.5734119 0 0 1 -33.771476,-1.82679 41.826351,1.5734119 0 0 1 48.560664,-1.27047 41.826351,1.5734119 0 0 1 33.774865,1.8267 41.826351,1.5734119 0 0 1 -48.558306,1.2706"
           style="fill:none;fill-rule:evenodd;stroke:#505050;stroke-width:0.991862;stroke-linecap:round;stroke-linejoin:round;stroke-opacity:1"
           id="path1110"
           sodipodi:type="arc"
           sodipodi:cx="84.405518"
           sodipodi:cy="144.64621"
           sodipodi:rx="41.826351"
           sodipodi:ry="1.5734119"
           sodipodi:start="1.7485581"
           sodipodi:end="1.7484185"
           sodipodi:open="true"
           sodipodi:arc-type="arc"
           inkscape:transform-center-x="-13.70714"
           inkscape:transform-center-y="39.29631"
           transform="matrix(0.98268858,0.18526509,0.05786084,0.99832466,0,0)" />
        <path
           style="fill:#800000;fill-opacity:1;fill-rule:evenodd;stroke:#000000;stroke-width:0.4;stroke-linecap:round;stroke-linejoin:round;stroke-miterlimit:4;stroke-dasharray:none;stroke-opacity:1"
           id="path1112"
           sodipodi:type="arc"
           sodipodi:cx="130.67654"
           sodipodi:cy="167.42381"
           sodipodi:rx="2.1828125"
           sodipodi:ry="2.1828125"
           sodipodi:start="1.7485581"
           sodipodi:end="1.7484185"
           sodipodi:open="true"
           sodipodi:arc-type="arc"
           d="m 130.29056,169.57223 a 2.1828125,2.1828125 0 0 1 -1.76244,-2.53432 2.1828125,2.1828125 0 0 1 2.53425,-1.76254 2.1828125,2.1828125 0 0 1 1.76263,2.5342 2.1828125,2.1828125 0 0 1 -2.53414,1.76271" />
      </g>
    </g>
    <circle
       style="fill:#808080;stroke-width:0.0822598"
       id="circle1106"
       cx="45.976311"
       cy="-62.046444"
       r="1.1042066"
       transform="rotate(95.705801)" />
    <rect
       transform="rotate(89.959921)"
       rx="2.2898295"
       ry="1.8153598"
       y="-106.13339"
       x="32.232922"
       height="4.4360452"
       width="113.56859"
       id="rect1120"
       style="fill:#333333;stroke-width:0.19857" />
    <rect
       transform="rotate(89.959921)"
       ry="1.8860331"
       y="-110.37849"
       x="141.03693"
       height="12.935717"
       width="6.3208609"
       id="rect1122"
       style="fill:#999999;fill-rule:evenodd;stroke-width:0.659993;stroke-linecap:round;stroke-linejoin:round" />
    <path
       transform="matrix(-0.3884462,-0.9214714,0.80019289,-0.59974273,0,0)"
       inkscape:transform-center-y="39.29631"
       inkscape:transform-center-x="-13.70714"
       sodipodi:arc-type="arc"
       sodipodi:open="true"
       sodipodi:end="1.7484185"
       sodipodi:start="1.7485581"
       sodipodi:ry="1.5734119"
       sodipodi:rx="41.826351"
       sodipodi:cy="85.043022"
       sodipodi:cx="-51.206551"
       sodipodi:type="arc"
       id="path1128"
       style="fill:none;fill-rule:evenodd;stroke:#505050;stroke-width:0.991862;stroke-linecap:round;stroke-linejoin:round;stroke-opacity:1"
       d="m -58.602581,86.59164 a 41.826351,1.5734119 0 0 1 -33.771477,-1.826786 41.826351,1.5734119 0 0 1 48.560665,-1.270469 41.826351,1.5734119 0 0 1 33.774865,1.826697 41.826351,1.5734119 0 0 1 -48.558306,1.270597" />
    <path
       transform="rotate(-123.53444)"
       sodipodi:arc-type="arc"
       sodipodi:open="true"
       sodipodi:end="1.7484185"
       sodipodi:start="1.7485581"
       sodipodi:ry="2.1828125"
       sodipodi:rx="2.1828125"
       sodipodi:cy="82.796295"
       sodipodi:cx="-6.0365748"
       sodipodi:type="arc"
       id="path1130"
       style="fill:#800000;fill-opacity:1;fill-rule:evenodd;stroke:#000000;stroke-width:0.4;stroke-linecap:round;stroke-linejoin:round;stroke-miterlimit:4;stroke-dasharray:none;stroke-opacity:1"
       d="m -6.4225552,84.944711 a 2.1828125,2.1828125 0 0 1 -1.7624487,-2.534321 2.1828125,2.1828125 0 0 1 2.5342594,-1.762537 2.1828125,2.1828125 0 0 1 1.7626256,2.534198 2.1828125,2.1828125 0 0 1 -2.5341363,1.762714" />
    <path
       transform="rotate(-123.53444)"
       sodipodi:arc-type="arc"
       sodipodi:open="true"
       sodipodi:end="1.7484185"
       sodipodi:start="1.7485581"
       sodipodi:ry="2.1828125"
       sodipodi:rx="2.1828125"
       sodipodi:cy="103.70464"
       sodipodi:cx="-9.3553762"
       sodipodi:type="arc"
       id="path1143"
       style="fill:#800000;fill-opacity:1;fill-rule:evenodd;stroke:#000000;stroke-width:0.4;stroke-linecap:round;stroke-linejoin:round;stroke-miterlimit:4;stroke-dasharray:none;stroke-opacity:1"
       d="m -9.7413566,105.85306 a 2.1828125,2.1828125 0 0 1 -1.7624484,-2.53432 2.1828125,2.1828125 0 0 1 2.5342591,-1.76254 2.1828125,2.1828125 0 0 1 1.7626256,2.5342 2.1828125,2.1828125 0 0 1 -2.5341363,1.76271" />
    <path
       transform="rotate(-123.53444)"
       sodipodi:arc-type="arc"
       sodipodi:open="true"
       sodipodi:end="1.7484185"
       sodipodi:start="1.7485581"
       sodipodi:ry="2.1828125"
       sodipodi:rx="2.1828125"
       sodipodi:cy="124.61298"
       sodipodi:cx="-12.67417"
       sodipodi:type="arc"
       id="path1147"
       style="fill:#800000;fill-opacity:1;fill-rule:evenodd;stroke:#000000;stroke-width:0.4;stroke-linecap:round;stroke-linejoin:round;stroke-miterlimit:4;stroke-dasharray:none;stroke-opacity:1"
       d="m -13.06015,126.7614 a 2.1828125,2.1828125 0 0 1 -1.762449,-2.53432 2.1828125,2.1828125 0 0 1 2.53426,-1.76254 2.1828125,2.1828125 0 0 1 1.762625,2.5342 2.1828125,2.1828125 0 0 1 -2.534136,1.76271" />
    <circle
       style="fill:#808080;stroke-width:0.264583"
       id="circle507"
       cx="104.02063"
       cy="105.17902"
       r="3.5516024" />
    <circle
       transform="rotate(5.7729141)"
       r="1.1042066"
       cy="146.15903"
       cx="65.585289"
       id="circle962"
       style="fill:#808080;stroke-width:0.0822598" />
    <circle
       style="fill:#808080;stroke-width:0.0822598"
       id="circle1078"
       cx="96.290611"
       cy="82.606064"
       r="1.1042066"
       transform="rotate(33.370608)" />
    <circle
       transform="rotate(62.005586)"
       r="1.1042066"
       cy="9.4862108"
       cx="93.316696"
       id="circle1092"
       style="fill:#808080;stroke-width:0.0822598" />
    <circle
       transform="rotate(136.95575)"
       r="1.1042066"
       cy="-96.03196"
       cx="-52.566734"
       id="circle1124"
       style="fill:#808080;stroke-width:0.0822598" />
  </g>
</svg>
